<svg xmlns="http://www.w3.org/2000/svg" viewBox="0 0 64 64">
  <defs>
    <linearGradient id="g" x1="0" y1="0" x2="1" y2="1">
      <stop offset="0%" stop-color="#22d3ee"/>
      <stop offset="50%" stop-color="#10b981"/>
      <stop offset="100%" stop-color="#a78bfa"/>
    </linearGradient>
    <filter id="glow" x="-50%" y="-50%" width="200%" height="200%">
      <feGaussianBlur stdDeviation="2" result="blur"/>
      <feMerge>
        <feMergeNode in="blur"/>
        <feMergeNode in="SourceGraphic"/>
      </feMerge>
    </filter>
  </defs>
  <rect width="64" height="64" rx="14" fill="#0a0b14"/>
  <g filter="url(#glow)">
    <path d="M48 19c-4-3-9-5-16-5-13 0-23 9-23 22s10 22 23 22c8 0 14-3 18-9l-9-5c-2 3-5 5-9 5-7 0-12-5-12-13s5-13 12-13c4 0 7 1 9 3h-9v9h16V19z" fill="url(#g)"/>
  </g>
</svg>
